<svg width="85" height="39" viewBox="0 0 85 39" fill="none" xmlns="http://www.w3.org/2000/svg">
<path d="M67.8998 27.044C67.8998 24.6459 69.5687 23.0104 72.0331 23.0104C73.5693 23.0104 74.7073 23.6513 75.3926 24.8117L74.166 25.5521C73.6688 24.7454 72.9504 24.3144 72.0331 24.3144C70.5631 24.3144 69.5464 25.4084 69.5464 27.044C69.5464 28.6685 70.5631 29.7626 72.0331 29.7626C72.9504 29.7626 73.6688 29.3426 74.166 28.5359L75.3926 29.2763C74.7073 30.4367 73.5693 31.0776 72.0331 31.0776C69.5687 31.0776 67.8998 29.431 67.8998 27.044Z" fill="white"/>
<path d="M64.6019 30.9117V23.176H66.4033V30.9117H64.6019Z" fill="white"/>
<path d="M56.2662 30.9117H54.6087V23.176H56.6644L60.775 29.1104V23.176H62.4329V30.9117H60.3772L56.2662 24.9773V30.9117Z" fill="white"/>
<path d="M50.6369 30.9117V23.176H52.4383V30.9117H50.6369Z" fill="white"/>
<path d="M43.493 30.9117V23.176H45.2169V29.3314H49.4051V30.9117H43.493Z" fill="white"/>
<path d="M34.8008 27.044C34.8008 24.6459 36.4695 23.0104 38.9339 23.0104C40.4699 23.0104 41.6082 23.6513 42.2934 24.8117L41.0667 25.5521C40.5694 24.7454 39.8511 24.3144 38.9339 24.3144C37.4641 24.3144 36.4474 25.4084 36.4474 27.044C36.4474 28.6685 37.4641 29.7626 38.9339 29.7626C39.8511 29.7626 40.5694 29.3426 41.0667 28.5359L42.2934 29.2763C41.6082 30.4367 40.4699 31.0776 38.9339 31.0776C36.4695 31.0776 34.8008 29.431 34.8008 27.044Z" fill="white"/>
<path d="M76.0641 19.2005L79.236 11.4648H81.4462L84.6177 19.2005H82.8716L82.319 17.7859H78.3628L77.8101 19.2005H76.0641ZM78.816 16.5925H81.8658L80.3409 12.7246L78.816 16.5925Z" fill="white"/>
<path d="M68.5476 19.2005H66.8897V11.4648H68.9454L73.0565 17.3992V11.4648H74.714V19.2005H72.6587L68.5476 13.2661V19.2005Z" fill="white"/>
<path d="M62.9184 19.2005V11.4648H64.7198V19.2005H62.9184Z" fill="white"/>
<path d="M55.7741 19.2005V11.4648H57.4979V17.6202H61.6866V19.2005H55.7741Z" fill="white"/>
<path d="M45.9651 19.2005L49.1366 11.4648H51.3468L54.5187 19.2005H52.7727L52.22 17.7859H48.2638L47.7112 19.2005H45.9651ZM48.7166 16.5925H51.7668L50.2419 12.7246L48.7166 16.5925Z" fill="white"/>
<path d="M35.4528 11.4648H37.8619L40.039 18.0622L42.2161 11.4648H44.6142V19.2005H43.0228V13.0008L40.9894 19.2005H39.0776L37.0442 13.0008V19.2005H35.4528V11.4648Z" fill="white"/>
<path d="M17.6204 3.70627L18.7587 3.88903C17.1217 5.67369 16.09 7.16287 15.7757 9.16577C15.9094 9.01551 16.0239 8.88803 16.098 8.80567L16.0992 8.80425C16.1249 8.7757 16.1456 8.75259 16.1605 8.73596C16.2478 8.6385 16.3356 8.5418 16.4231 8.44515L16.4235 8.44477C16.7135 8.12464 17.0021 7.80588 17.2703 7.46955C17.4541 7.23907 18.189 6.33768 18.4036 6.24519C18.4415 6.79515 18.4484 7.36234 18.4552 7.92006C18.4579 8.14027 18.4607 8.35915 18.4653 8.57476C18.4697 8.78337 18.4595 8.9834 18.4491 9.18647C18.4417 9.33247 18.4342 9.48017 18.4319 9.6337C18.6658 9.40033 18.9069 9.18467 19.1656 8.95883C19.1792 8.94689 19.1946 8.93335 19.2115 8.91857L19.2145 8.91597C19.5175 8.65049 20.2971 7.96774 20.6768 7.82255C20.6488 7.9507 20.6369 8.02576 20.6257 8.17555C20.623 8.21225 20.6165 8.33788 20.622 8.36843C20.6256 8.38889 20.6276 8.40328 20.6291 8.4138C20.6314 8.42961 20.6324 8.43676 20.6358 8.44254C20.6386 8.44718 20.643 8.45097 20.6509 8.45779C20.6572 8.46324 20.6658 8.47063 20.6775 8.4819C20.7124 8.39552 20.7465 8.28271 20.7822 8.16413C20.8384 7.97778 20.8989 7.7769 20.9743 7.64103C21.0676 7.47325 22.5258 6.58526 22.9491 6.32755H22.9492L22.9507 6.32655C22.9835 6.30657 23.01 6.29042 23.029 6.27877C23.1406 6.21053 23.2525 6.143 23.3641 6.07561L23.3642 6.07547L23.3646 6.07533C23.7344 5.85204 24.1025 5.62965 24.456 5.38453C24.6984 5.21651 25.661 4.5643 25.8931 4.53732C25.7714 5.07501 25.615 5.62046 25.4614 6.15668C25.4008 6.36837 25.3405 6.57863 25.2829 6.78643C25.2272 6.98751 25.16 7.17623 25.0918 7.36778L25.0068 7.60944C24.9788 7.69123 24.9513 7.77458 24.9253 7.86067L23.9041 11.0944C23.8464 11.2734 23.7732 11.486 23.6955 11.7115L23.6954 11.7117V11.712C23.6112 11.9563 23.5219 12.2158 23.4416 12.4636C23.4948 12.3994 23.5366 12.3452 23.5722 12.2991C23.6394 12.2121 23.6844 12.154 23.7415 12.1112C23.8563 12.0251 24.0203 12.0009 24.514 11.9282C24.5876 11.9173 24.6687 11.9055 24.7579 11.8921C25.2183 11.8231 28.1226 11.8307 29.6191 12.6578C28.5818 14.0423 27.833 14.8439 26.8514 15.6616C27.0088 15.796 27.1467 15.9383 27.2237 16.0875C27.2403 16.1196 27.2622 16.1723 27.2856 16.2287C27.3224 16.3175 27.3632 16.4157 27.3936 16.4585C27.6754 16.4301 28.9065 15.1896 29.0924 14.935C29.1044 14.9527 29.1103 14.9588 29.1141 14.9658C29.1189 14.9744 29.1208 14.9846 29.1269 15.0192L29.1288 15.0298C29.131 15.0424 29.1327 15.0513 29.1339 15.0577C29.1362 15.0692 29.1369 15.0731 29.1367 15.0769C29.1366 15.0789 29.1363 15.0808 29.1357 15.0837C29.1345 15.0901 29.1325 15.1014 29.1302 15.1281C29.1167 15.2862 29.0581 15.4086 28.9913 15.5481C28.9828 15.5658 28.9741 15.5839 28.9653 15.6023C28.7968 15.9596 28.6804 16.3529 28.5645 16.7442C28.4821 17.0223 28.4 17.2995 28.2997 17.5618C28.0939 18.1004 28.1215 18.2446 28.1733 18.5152C28.1985 18.6469 28.2293 18.8086 28.2418 19.0602C28.2593 19.4099 28.2248 19.8144 28.192 20.199C28.1781 20.3612 28.1646 20.5199 28.1554 20.6694C28.2915 20.6472 28.546 20.4988 28.6418 20.4272C28.7378 20.3555 28.8031 20.3122 28.8727 20.266H28.8729L28.8732 20.2658C28.925 20.2314 28.9793 20.1954 29.0503 20.1449C29.1107 20.1021 29.1632 20.0607 29.2167 20.0185V20.0184C29.2845 19.9647 29.3541 19.9098 29.4438 19.8488L29.8956 19.6175C29.8029 19.8314 29.5576 20.0839 29.316 20.3329C29.1636 20.4897 29.0127 20.6453 28.9022 20.7888C28.7626 20.97 28.6354 21.1561 28.5088 21.3411C28.3489 21.5751 28.1899 21.8076 28.0083 22.0269C27.7003 22.399 27.5046 22.8379 27.3074 23.2803V23.2804C27.2171 23.483 27.1265 23.6863 27.0246 23.8842C27.0203 23.8926 27.0159 23.9009 27.0115 23.9093C27.1497 24.392 27.3002 25.0173 27.4003 25.6678L27.618 25.7846C27.6694 25.8076 27.7277 25.8269 27.7867 25.8465C27.9084 25.8869 28.0336 25.9284 28.1085 26.0049C27.8955 26.0571 27.6824 26.1092 27.4648 26.1586C27.5319 26.7793 27.5396 27.3961 27.4343 27.9096C26.6469 27.6307 26.1497 28.0071 25.58 27.7398C24.7816 28.6841 24.4587 29.6626 24.2261 31.4046L24.2325 31.4248C24.2261 31.7904 24.2665 31.9822 24.4139 32.3093C24.4454 32.3792 24.4716 32.447 24.4971 32.513C24.5411 32.6268 24.583 32.7351 24.646 32.8385C24.7115 32.9459 24.7407 32.9879 24.7523 33.0026C24.7477 33.0033 24.747 33.0221 24.7766 33.1124L24.8359 33.2185C24.7182 33.2057 24.4047 32.8105 24.027 32.3345C23.494 31.6625 22.8077 31.2641 22.4852 31.6102C22.4582 31.6615 22.4369 31.6967 22.4185 31.7274L22.4183 31.7276C22.3763 31.7973 22.3488 31.8433 22.3006 31.9991C22.1539 32.4737 22.0384 32.8797 21.9898 33.3995C21.9759 33.5479 21.9619 33.6962 21.9478 33.8444C21.7916 35.4897 21.6366 35.7744 21.749 37.4301C21.751 37.4595 21.7545 37.4955 21.7585 37.5359V37.5362C21.7838 37.792 21.8268 38.2272 21.6068 38.3307C21.1904 38.49 21.2125 37.3768 21.2185 37.0759V37.0754C21.2225 36.877 21.2279 36.6749 21.2333 36.4701C21.2705 35.0696 21.3111 33.5446 20.921 32.2535C20.7292 32.3 20.6346 32.4153 20.5352 32.5364C20.4839 32.599 20.4313 32.6632 20.3634 32.7202C20.3532 32.7287 20.3429 32.7373 20.3326 32.746L20.33 32.7481H20.33C20.1695 32.8824 19.9855 33.0366 19.8534 33.1862C19.731 33.3249 19.5501 33.4683 19.3725 33.6091C19.2655 33.6941 19.1597 33.7781 19.0686 33.8595C18.7946 34.1043 18.7437 34.0353 18.6599 33.9217C18.6132 33.8584 18.5562 33.7813 18.4446 33.737C18.3477 34.1062 18.2573 34.6456 18.2041 35.0452C18.1919 35.136 18.1847 35.2432 18.177 35.3557C18.1501 35.7487 18.1186 36.2068 17.8646 36.2592C17.831 36.0904 17.8155 35.9055 17.7998 35.7182C17.7753 35.4268 17.7504 35.1297 17.6563 34.8788C17.463 35.0782 17.2134 35.2457 16.967 35.4107C16.8521 35.4877 16.7379 35.5641 16.6305 35.6432C16.3623 35.8406 16.2001 35.9911 16.036 36.1433C15.9259 36.2454 15.8149 36.3483 15.6704 36.4667C15.4395 36.656 14.9056 37.1177 14.7698 37.3464C14.663 37.5262 14.5673 37.7319 14.4823 37.9384L14.2315 38.5067C14.1642 38.3229 14.1404 38.071 14.1156 37.8064C14.0701 37.3217 14.0206 36.4414 13.6909 36.2116C13.4334 36.0322 13.1562 35.8577 12.8782 35.6828C12.6101 35.5141 12.341 35.3449 12.0881 35.1701C11.2303 34.5773 10.8189 34.359 10.1223 33.7722L10.1222 33.7721C10.039 33.702 9.95164 33.6285 9.85906 33.5507C9.80242 33.5032 9.71112 33.4162 9.61276 33.3226L9.61262 33.3225C9.44559 33.1634 9.25815 33.2096 9.1857 33.1717C9.13171 33.2988 9.15013 34.2555 9.16249 34.899V34.8992C9.16661 35.1126 9.16997 35.2916 9.16988 35.3944C9.16988 35.4291 9.17016 35.4607 9.1704 35.4899C9.17215 35.7205 9.17263 35.7909 9.02861 35.9989C8.5622 35.9687 8.55713 35.6599 8.55031 35.2398L8.55017 35.2364L8.45243 33.0688C8.44916 32.9836 8.44726 32.9117 8.44565 32.8503C8.44049 32.6545 8.43817 32.5649 8.40341 32.4893C8.37774 32.4335 8.33441 32.3851 8.25926 32.3074L8.22502 32.2722C8.20395 32.2505 8.18065 32.2266 8.15507 32.2C7.92322 31.9584 7.42659 31.6008 7.08903 31.1611L7.06668 31.1322C6.59496 30.5177 6.29173 30.1227 6.03046 29.9583L5.8175 29.7787C5.67879 29.9546 5.60283 31.1067 5.57631 31.5098C5.57342 31.5541 5.57115 31.5893 5.56945 31.6133C5.54132 31.9989 5.52228 32.3829 5.52545 32.7684C5.52588 32.8213 5.52915 32.8828 5.5327 32.949C5.54923 33.2572 5.57129 33.6683 5.33551 33.7979C5.15868 33.7355 5.12557 33.6245 5.11165 33.4307C5.08366 33.0405 5.08537 32.6458 5.08707 32.2524V32.252C5.08788 32.0711 5.08868 31.8905 5.0866 31.7108C5.07826 31.0024 4.99785 30.3305 4.74951 29.7162C4.6266 29.4121 4.66298 29.2333 4.71644 28.9704C4.73256 28.8912 4.75013 28.8042 4.76547 28.704L3.73698 27.2317L2.19207 26.9389L2.19182 26.939C1.87996 27.054 1.43898 27.2167 1.29847 27.2317C1.31158 27.1551 1.50185 26.8668 1.65985 26.6274C1.74264 26.502 1.81655 26.3899 1.8515 26.3287C2.11352 25.8705 2.31489 25.5391 2.46545 25.2913C2.74882 24.825 2.4102 23.5064 2.3999 23.3425L2.01094 22.1219L2.00957 22.1111C2.00662 22.089 2.00488 22.0767 2.0023 22.0646C1.99909 22.0497 1.99445 22.035 1.98399 22.0024C1.9819 21.9958 1.97958 21.9884 1.97698 21.9803C1.90368 21.75 1.86883 21.513 1.83395 21.2757C1.82427 21.2098 1.81464 21.1438 1.80412 21.0781C1.76763 20.8498 1.63028 20.7771 1.43197 20.6853C1.33708 20.6414 1.25057 20.5934 1.16272 20.5446L1.16247 20.5443C1.09421 20.5064 1.02505 20.4681 0.95051 20.4307C0.917971 20.4144 0.859585 20.3875 0.787182 20.3542L0.78668 20.354C0.514033 20.2285 0.0428614 20.0115 0 19.923C0.0922766 19.8132 0.508057 19.6869 0.817012 19.593C0.928404 19.5592 1.02593 19.5295 1.08939 19.5064C1.17203 19.4764 1.24863 19.4523 1.31928 19.4301C1.64095 19.329 1.84026 19.2663 1.93386 18.8464C1.96419 18.7102 1.98693 18.5841 2.00881 18.4626C2.05761 18.1919 2.10218 17.9447 2.21727 17.6631C2.25801 17.5634 2.30501 17.4805 2.35114 17.3991C2.38974 17.331 2.42774 17.264 2.46094 17.1891C2.50919 17.0804 2.57852 16.9558 2.64796 16.8313C2.79419 16.569 2.94078 16.3063 2.8905 16.1885C2.86451 16.1276 2.80221 16.0647 2.7347 15.9965C2.67276 15.9338 2.60634 15.8666 2.55934 15.7924L1.90716 14.9905C1.78436 14.8447 1.53329 14.609 1.27441 14.3662C0.903158 14.0179 0.51589 13.6547 0.468296 13.5198C1.66467 13.2249 2.3696 13.1027 3.67581 12.9517C3.91785 12.7749 5.71493 12.9516 7.0761 13.0854C7.72526 13.1492 8.27541 13.2033 8.51034 13.2046L8.58578 13.2171C8.53142 13.1046 8.47378 12.9946 8.41819 12.8886V12.8885C8.37774 12.8113 8.3383 12.7363 8.30212 12.6639C8.23643 12.5324 8.16786 12.4059 8.09995 12.2807C7.98923 12.0766 7.88012 11.8758 7.78806 11.6612C7.6387 11.313 7.4747 10.9812 7.28191 10.6484C7.1361 10.3967 6.99919 10.1256 6.86063 9.85155C6.65766 9.44996 6.45109 9.04151 6.20805 8.67644C6.16747 8.61544 6.12996 8.5526 6.09274 8.49042C6.03449 8.39291 5.97705 8.29683 5.91013 8.21149C5.84341 8.12639 5.78999 8.08538 5.74201 8.04854C5.67444 7.99668 5.61766 7.95316 5.5496 7.80626C5.36231 7.40179 5.02598 6.96947 4.75378 6.6196C4.52725 6.32835 4.34516 6.09427 4.33037 5.9808C4.74236 6.05188 8.0775 7.91309 8.79737 8.32396C9.06238 8.47522 9.42456 8.67222 9.80678 8.88012V8.88021C10.4385 9.22383 11.1252 9.59733 11.5198 9.84402C11.5963 9.89189 11.6659 9.93508 11.7291 9.97439C12.1529 10.2379 12.2937 10.3254 12.3646 10.4501C12.3999 10.5121 12.418 10.5834 12.445 10.69C12.4623 10.7583 12.4831 10.8411 12.5147 10.9453L12.6304 11.2448L12.6706 10.7098C12.6466 9.42107 12.7962 8.0188 13.2938 6.69669C14.3625 3.85724 17.3452 0.00961061 17.3527 0L17.6204 3.70627ZM13.6304 31.3855C13.2028 31.0107 13.0777 31.8622 13.3264 32.5963V32.5962C13.9069 34.0445 14.9651 35.0563 16.3552 34.4493C16.6552 34.3198 17.0333 33.9884 17.1456 33.6082C17.2333 33.3105 17.1213 32.9106 16.9295 32.8489C15.805 32.7751 14.7475 32.3184 13.6304 31.3855ZM22.6703 15.3641C20.2234 14.8881 17.6252 15.6469 15.5924 17.038C13.3869 18.5455 12.086 20.5911 11.8009 23.4074L11.8011 23.4071C11.796 23.5966 11.7724 23.9269 11.7816 24.2566C11.8369 26.3535 12.5073 28.4965 13.8849 30.1063C14.7707 31.1439 17.7948 32.7799 18.8517 31.1958C19.673 29.9629 18.7701 28.7771 19.2823 27.3801C19.8237 25.9009 21.1145 24.9047 22.3765 24.0538C24.1741 22.8416 26.0862 21.6316 26.088 19.2017C26.0891 17.1847 24.5292 15.725 22.6703 15.3641ZM10.113 21.3483C9.52913 21.2471 8.98888 21.4133 8.47786 21.6721C5.94319 22.9554 5.30648 25.8261 6.10264 28.1241C6.69289 29.8267 7.99567 30.8026 9.6694 31.3297C10.3924 31.5581 11.1297 31.6473 11.8684 31.4154C12.4866 31.2199 12.6576 30.7705 12.3586 30.1949C12.311 30.1031 12.2572 30.0135 12.1963 29.9294C10.7025 27.8831 10.2865 25.5957 10.6801 23.1281V23.128C10.7271 22.8544 10.7836 22.5827 10.8197 22.3087C10.8912 21.775 10.6453 21.4399 10.113 21.3483ZM26.0673 30.6784C26.3685 30.5438 26.615 31.1957 26.2491 31.3078C25.8513 31.4295 25.7115 30.8374 26.0673 30.6784ZM23.7944 24.8119C22.398 24.8861 19.3567 27.1137 20.6276 30.0578C21.2868 31.5839 24.7679 30.5562 23.3294 28.182H23.3295C22.121 26.1882 25.0249 24.7464 23.7944 24.8119ZM25.6198 23.3673C25.387 23.2012 25.2015 23.2416 25.1732 23.5419C25.1017 24.3058 25.1684 25.0616 25.5212 25.7533C25.6012 25.909 25.8577 26.0757 26.0151 26.06C26.1671 26.0446 26.3646 25.8244 26.424 25.6532C26.6988 24.8648 26.3893 24.2068 25.9019 23.6103L25.8298 23.5459C25.7594 23.4818 25.693 23.4194 25.6198 23.3673ZM5.10526 23.7861C4.97962 23.7962 4.85611 23.8292 4.72082 23.8529H4.7207C3.96398 24.1252 3.33219 24.5482 3.15511 25.4029C3.11635 25.5882 3.17497 25.892 3.30365 25.9877C3.43607 26.0855 3.75553 26.0745 3.91033 25.9779C4.59968 25.5477 5.06486 24.9068 5.41175 24.1837C5.54823 23.8991 5.40318 23.7628 5.10526 23.7861ZM10.2894 14.8044C8.91453 14.8378 7.59816 15.1905 6.35997 15.9502C5.44092 16.5131 4.66489 17.2321 4.24927 18.3207L4.24939 18.3208C3.80683 19.4772 3.94527 20.4182 4.65126 21.0443C5.61377 21.8989 7.22063 21.7205 8.16175 20.6936C9.24967 19.507 10.5554 18.7136 11.9716 18.1302C12.5953 17.8734 13.2318 17.6314 13.8196 17.2883C14.4405 16.9254 14.4982 16.3118 13.989 15.8474C13.7264 15.607 13.4138 15.4062 13.0898 15.2707C12.2052 14.8995 11.2602 14.7808 10.2894 14.8044ZM16.749 4.57743C17.2853 4.09527 16.6423 3.15902 16.0988 3.64899L16.0987 3.64911C14.5811 5.01558 13.8234 7.01488 13.5762 9.00732C13.3342 10.9572 13.5725 13.1335 14.7249 14.7781C15.1437 15.3766 16.0739 14.7272 15.6537 14.1273C14.6727 12.727 14.5048 10.8738 14.691 9.21768C14.8765 7.56152 15.476 5.72418 16.749 4.57743ZM26.7861 12.897C25.6113 12.5464 24.6666 13.0445 23.8236 13.7992L23.8235 13.799C23.7043 13.9494 23.5812 14.0811 23.4849 14.23C23.2572 14.5826 23.3287 14.8532 23.7717 14.8739C24.898 14.9277 26.0015 14.7801 26.9927 14.2154C27.2157 14.0886 27.4442 13.7004 27.4104 13.4708C27.3776 13.2477 27.0414 12.9732 26.7861 12.897ZM5.19263 14.1843C4.66718 13.8123 4.10033 13.5918 3.4587 13.8665C3.31902 13.9261 3.14731 14.1039 3.14345 14.2322C3.13906 14.364 3.29327 14.5683 3.42799 14.6255C4.02467 14.8804 4.65931 14.8921 5.29227 14.7885C5.54099 14.7477 5.56443 14.5902 5.41236 14.4057C5.34801 14.3272 5.26977 14.2612 5.19263 14.1841V14.1843ZM19.0745 14.5203C24.3915 12.9501 23.0149 7.0029 22.3683 7.3693H22.3682C20.5904 9.05572 18.5003 11.1503 17.6011 12.8381C17.399 13.2177 17.423 13.9714 17.6765 14.2663C17.9213 14.5529 18.646 14.6477 19.0745 14.5203ZM8.76413 9.44944C8.26646 9.27716 8.07267 13.5978 11.9794 14.0079C12.2943 14.0413 12.7869 13.8822 12.9214 13.6512C13.0594 13.4131 12.9796 12.8845 12.7893 12.6462C11.9457 11.5859 10.2194 10.3955 8.76413 9.44944ZM17.8453 9.42486C18.1226 9.00514 17.4789 8.91298 16.9291 9.17506V9.17482C15.8454 9.77767 15.0977 10.8204 15.5756 12.1274C15.677 12.4098 15.9327 12.7599 16.2212 12.8542C16.4469 12.9285 16.7471 12.8081 16.7903 12.6234C16.8302 11.5467 17.1594 10.5228 17.8453 9.42486Z" fill="white"/>
</svg>
