<svg width="83" height="109" viewBox="0 0 83 109" fill="none" xmlns="http://www.w3.org/2000/svg">
<path d="M48.9202 10.4912L52.0804 11.0086C47.5354 16.0604 44.6712 20.2758 43.7986 25.9453C44.1697 25.52 44.4877 25.1591 44.6933 24.926L44.6967 24.922C44.7681 24.8411 44.8256 24.7757 44.867 24.7287C45.1093 24.4528 45.3529 24.1791 45.596 23.9055L45.5971 23.9044C46.4022 22.9982 47.2036 22.0959 47.9482 21.1439C48.4584 20.4914 50.4988 17.9399 51.0946 17.6781C51.1997 19.2348 51.2188 20.8404 51.2379 22.4191C51.2454 23.0424 51.253 23.662 51.2657 24.2724C51.278 24.8629 51.2496 25.4291 51.2208 26.0039C51.2001 26.4172 51.1794 26.8353 51.1732 27.2699C51.8225 26.6093 52.4919 25.9988 53.21 25.3595C53.2479 25.3257 53.2906 25.2874 53.3374 25.2456L53.3457 25.2382C54.1872 24.4867 56.3514 22.5541 57.4056 22.1431C57.328 22.5058 57.2948 22.7183 57.2639 23.1423C57.2564 23.2462 57.2382 23.6018 57.2535 23.6883C57.2636 23.7462 57.2691 23.787 57.2733 23.8167C57.2795 23.8615 57.2823 23.8817 57.2918 23.8981C57.2995 23.9112 57.3119 23.922 57.3338 23.9413C57.3513 23.9567 57.3751 23.9776 57.4076 24.0095C57.5046 23.765 57.599 23.4457 57.6983 23.11C57.8542 22.5825 58.0224 22.0139 58.2317 21.6293C58.4906 21.1543 62.539 18.6407 63.7142 17.9112H63.7146L63.7188 17.9084C63.8099 17.8518 63.8834 17.8061 63.9362 17.7732C64.246 17.58 64.5566 17.3888 64.8665 17.1981L64.8668 17.1977L64.8679 17.1973C65.8945 16.5652 66.9166 15.9357 67.8979 15.2419C68.5708 14.7662 71.2434 12.92 71.8878 12.8437C71.5499 14.3657 71.1159 15.9097 70.6892 17.4276C70.5209 18.0268 70.3535 18.622 70.1937 19.2102C70.039 19.7794 69.8525 20.3136 69.663 20.8558L69.427 21.5399C69.3493 21.7714 69.2732 22.0073 69.2009 22.251L66.3657 31.4046C66.2054 31.9113 66.0022 32.5132 65.7865 33.1514L65.7863 33.1521V33.1527C65.5525 33.8444 65.3045 34.579 65.0816 35.2805C65.2293 35.0986 65.3453 34.9451 65.4442 34.8147C65.6309 34.5684 65.7558 34.404 65.9143 34.2828C66.2329 34.0392 66.6883 33.9707 68.059 33.7648C68.2635 33.7341 68.4885 33.7005 68.7362 33.6627C70.0143 33.4673 78.0777 33.4889 82.2323 35.8301C79.3525 39.7493 77.2736 42.0182 74.5483 44.333C74.9854 44.7134 75.3682 45.1163 75.5819 45.5384C75.628 45.6294 75.6888 45.7785 75.7537 45.9383C75.8562 46.1895 75.9694 46.4675 76.0538 46.5887C76.8361 46.5083 80.2541 42.9969 80.7703 42.2761C80.8034 42.3263 80.8197 42.3434 80.8305 42.3634C80.8436 42.3878 80.8489 42.4166 80.866 42.5146L80.8712 42.5444C80.8774 42.58 80.882 42.6052 80.8854 42.6236C80.8916 42.6559 80.8937 42.667 80.8932 42.6779C80.8928 42.6834 80.8919 42.6889 80.8903 42.697C80.887 42.7151 80.8814 42.7472 80.8751 42.8226C80.8376 43.2704 80.6749 43.6166 80.4894 44.0115C80.4659 44.0618 80.4416 44.113 80.4174 44.1652C79.9494 45.1763 79.6263 46.2897 79.3046 47.3973C79.0758 48.1846 78.8478 48.9692 78.5695 49.7117C77.9981 51.2362 78.0747 51.6444 78.2184 52.4105C78.2884 52.7833 78.3739 53.241 78.4087 53.9532C78.457 54.943 78.3613 56.0881 78.2702 57.1767C78.2318 57.6358 78.1942 58.0852 78.1686 58.5084C78.5466 58.4454 79.2533 58.0255 79.5193 57.8228C79.7856 57.6198 79.9669 57.4972 80.1602 57.3665H80.1606L80.1617 57.3659C80.3055 57.2685 80.456 57.1667 80.6534 57.0238C80.8209 56.9025 80.9666 56.7854 81.1151 56.6659V56.6654C81.3034 56.5137 81.4967 56.3582 81.7457 56.1854L83 55.5307C82.7427 56.1363 82.0618 56.851 81.3908 57.5557C80.9679 57.9998 80.5489 58.44 80.242 58.8462C79.8545 59.3592 79.5012 59.8859 79.1499 60.4098C78.7059 61.072 78.2646 61.7302 77.7603 62.3511C76.9052 63.4042 76.3618 64.6467 75.8143 65.8989V65.8992C75.5636 66.4726 75.3121 67.0483 75.0293 67.6083C75.0172 67.6322 75.0051 67.6558 74.993 67.6794C75.3765 69.0459 75.7945 70.8159 76.0722 72.6571L76.6767 72.9878C76.8194 73.0528 76.9812 73.1075 77.1452 73.163C77.4831 73.2775 77.8306 73.3949 78.0384 73.6115C77.447 73.7591 76.8554 73.9066 76.2514 74.0465C76.4376 75.8034 76.459 77.5494 76.1666 79.003C73.9806 78.2135 72.6001 79.279 71.0184 78.5222C68.8018 81.1952 67.9056 83.9651 67.2597 88.8963L67.2775 88.9534C67.2597 89.9882 67.3719 90.5312 67.7811 91.4571C67.8685 91.655 67.9413 91.8469 68.0121 92.0337C68.1342 92.3559 68.2504 92.6625 68.4256 92.9551C68.6074 93.259 68.6882 93.3781 68.7206 93.4196C68.7078 93.4216 68.706 93.4749 68.7882 93.7304L68.9528 94.0306C68.6258 93.9946 67.7554 92.8759 66.707 91.5284C65.2271 89.6263 63.3216 88.4985 62.4262 89.4783C62.3514 89.6233 62.2924 89.7232 62.2411 89.81L62.2407 89.8104C62.1241 90.0079 62.0476 90.1381 61.914 90.5789C61.5067 91.9224 61.186 93.0718 61.051 94.543C61.0123 94.9631 60.9734 95.3831 60.9343 95.8025C60.5006 100.46 60.0704 101.266 60.3824 105.952C60.3879 106.036 60.3978 106.137 60.4088 106.252V106.253C60.479 106.977 60.5986 108.209 59.9877 108.502C58.8315 108.953 58.893 105.802 58.9096 104.95V104.948C58.9206 104.387 58.9356 103.815 58.9507 103.235C59.0541 99.2706 59.1666 94.9537 58.0835 91.2992C57.5512 91.4307 57.2885 91.7573 57.0126 92.1C56.8701 92.2772 56.7242 92.4589 56.5355 92.6201C56.5074 92.6443 56.4787 92.6687 56.4499 92.6932L56.4429 92.6992H56.4427C55.9972 93.0794 55.4863 93.5157 55.1195 93.9393C54.7797 94.3318 54.2775 94.7379 53.7846 95.1366C53.4873 95.3769 53.1936 95.6147 52.9406 95.8452C52.1799 96.5382 52.0387 96.3428 51.8061 96.0214C51.6765 95.8422 51.5182 95.6238 51.2083 95.4985C50.9394 96.5434 50.6883 98.0705 50.5405 99.2017C50.5068 99.4586 50.4867 99.7621 50.4653 100.081C50.3906 101.193 50.3032 102.49 49.5981 102.638C49.5049 102.16 49.4617 101.637 49.4182 101.107C49.3502 100.282 49.2811 99.4407 49.0197 98.7305C48.483 99.2951 47.79 99.7691 47.106 100.236C46.7871 100.454 46.47 100.67 46.1719 100.894C45.4271 101.453 44.9769 101.879 44.5213 102.31C44.2156 102.599 43.9073 102.89 43.5062 103.225C42.8652 103.761 41.3829 105.068 41.0059 105.715C40.7094 106.224 40.4435 106.807 40.2075 107.391L39.5115 109C39.3244 108.48 39.2585 107.767 39.1896 107.018C39.0632 105.646 38.9258 103.154 38.0105 102.503C37.2957 101.995 36.526 101.502 35.7541 101.006C35.0097 100.529 34.2628 100.05 33.5605 99.555C31.179 97.877 30.0368 97.2591 28.1028 95.5981L28.1025 95.5978C27.8715 95.3994 27.6291 95.1914 27.372 94.9711C27.2148 94.8366 26.9613 94.5904 26.6882 94.3254L26.6878 94.325C26.2241 93.8749 25.7037 94.0054 25.5025 93.8982C25.3526 94.258 25.4038 96.9662 25.4381 98.7876V98.7884C25.4495 99.3923 25.4589 99.899 25.4586 100.19C25.4586 100.288 25.4594 100.378 25.4601 100.46C25.4649 101.113 25.4662 101.312 25.0664 101.901C23.7715 101.816 23.7574 100.942 23.7385 99.7523L23.7381 99.7428L23.4667 93.6069C23.4577 93.3659 23.4524 93.1622 23.4479 92.9885C23.4336 92.4343 23.4272 92.1807 23.3307 91.9666C23.2594 91.8086 23.1391 91.6717 22.9304 91.4518L22.8354 91.352C22.7769 91.2906 22.7122 91.2231 22.6412 91.1477C21.9975 90.4639 20.6187 89.4514 19.6815 88.2069L19.6194 88.125C18.3098 86.3856 17.4679 85.2676 16.7426 84.8021L16.1513 84.2937C15.7662 84.7917 15.5553 88.0529 15.4817 89.1941C15.4737 89.3193 15.4674 89.419 15.4626 89.4868C15.3845 90.5784 15.3317 91.6654 15.3405 92.7567C15.3417 92.9065 15.3507 93.0806 15.3606 93.268C15.4065 94.1403 15.4678 95.3041 14.8131 95.6709C14.3222 95.4941 14.2303 95.1801 14.1916 94.6313C14.1139 93.527 14.1187 92.4096 14.1234 91.296V91.2949C14.1256 90.7828 14.1279 90.2716 14.1221 89.7628C14.0989 87.7576 13.8757 85.8558 13.1862 84.117C12.845 83.2561 12.946 82.75 13.0944 82.0058C13.1392 81.7816 13.1879 81.5355 13.2305 81.2518L10.3751 77.0841L6.08592 76.2553L6.08523 76.2556C5.21938 76.5812 3.99508 77.0415 3.60499 77.0841C3.64137 76.8674 4.16962 76.0513 4.60828 75.3735C4.83815 75.0184 5.04334 74.7011 5.14039 74.5281C5.86784 73.2308 6.42691 72.2929 6.84492 71.5915C7.63164 70.2714 6.69151 66.539 6.66291 66.0749L5.58305 62.62L5.57922 62.5894C5.57104 62.5267 5.56622 62.492 5.55904 62.4578C5.55014 62.4156 5.53727 62.374 5.50822 62.2815C5.5024 62.2629 5.49596 62.2421 5.48874 62.2191C5.28525 61.567 5.18848 60.8962 5.09166 60.2246C5.06477 60.038 5.03803 59.8513 5.00884 59.6651C4.90753 59.0189 4.52619 58.8131 3.97561 58.5534C3.71218 58.4292 3.47199 58.2931 3.2281 58.155L3.2274 58.1542C3.03789 58.0468 2.84588 57.9384 2.63893 57.8328C2.54859 57.7867 2.38649 57.7104 2.18548 57.616L2.18408 57.6156C1.42713 57.2604 0.118997 56.6461 0 56.3955C0.256191 56.0847 1.41053 55.7272 2.26829 55.4615C2.57756 55.3657 2.84832 55.2818 3.02452 55.2164C3.25393 55.1312 3.46661 55.0631 3.66276 55.0003C4.55582 54.7142 5.10917 54.5366 5.36903 53.3479C5.45324 52.9626 5.51639 52.6054 5.57713 52.2617C5.71262 51.4954 5.83634 50.7956 6.15587 49.9984C6.26898 49.7162 6.39948 49.4815 6.52753 49.2512C6.6347 49.0584 6.74022 48.8688 6.83239 48.6568C6.96634 48.3489 7.15882 47.9964 7.35161 47.6438C7.75761 46.9014 8.16457 46.1578 8.025 45.8243C7.95283 45.6519 7.77986 45.474 7.59243 45.2807C7.42048 45.1034 7.23606 44.9133 7.10557 44.7031L5.2949 42.4334C4.95396 42.0206 4.25691 41.3534 3.53817 40.666C2.50747 39.6802 1.43228 38.652 1.30015 38.2703C4.62168 37.4355 6.57878 37.0895 10.2053 36.6622C10.8772 36.1616 15.8665 36.6616 19.6456 37.0405C21.4479 37.2212 22.9753 37.3741 23.6275 37.3779L23.837 37.4134C23.686 37.0949 23.526 36.7835 23.3717 36.4834V36.4831C23.2594 36.2647 23.1499 36.0522 23.0494 35.8473C22.8671 35.4752 22.6767 35.117 22.4881 34.7625C22.1807 34.1851 21.8778 33.6164 21.6222 33.009C21.2076 32.0235 20.7522 31.0842 20.217 30.1421C19.8122 29.4296 19.4321 28.6624 19.0474 27.8865C18.4839 26.7498 17.9103 25.5936 17.2356 24.5602C17.1229 24.3875 17.0188 24.2096 16.9155 24.0336C16.7537 23.7576 16.5943 23.4856 16.4085 23.2441C16.2232 23.0032 16.0749 22.8871 15.9417 22.7828C15.7541 22.636 15.5965 22.5128 15.4075 22.097C14.8875 20.952 13.9538 19.7283 13.1981 18.7379C12.5692 17.9135 12.0636 17.2509 12.0225 16.9297C13.1664 17.1309 22.4258 22.3994 24.4244 23.5624C25.1602 23.9906 26.1657 24.5482 27.2269 25.1367V25.137C28.9806 26.1097 30.8872 27.1669 31.9827 27.8652C32.1951 28.0007 32.3884 28.123 32.5639 28.2342C33.7404 28.9801 34.1313 29.228 34.3282 29.5808C34.4262 29.7563 34.4764 29.9581 34.5514 30.2599C34.5993 30.4532 34.6573 30.6877 34.7449 30.9827L35.0661 31.8303L35.1777 30.3159C35.1111 26.668 35.5265 22.6986 36.9081 18.9562C39.875 10.9186 48.1562 0.0272045 48.1768 0L48.9202 10.4912ZM37.8424 88.842C36.6554 87.7813 36.308 90.1914 36.9986 92.2696V92.2692C38.6101 96.3688 41.548 99.233 45.4073 97.5149C46.2403 97.1483 47.2901 96.2102 47.6018 95.1337C47.8453 94.2911 47.5344 93.1593 47.0019 92.9846C43.88 92.7755 40.9438 91.483 37.8424 88.842ZM62.9403 43.4908C56.1467 42.1434 48.9333 44.2913 43.2898 48.2289C37.1665 52.4963 33.5546 58.2868 32.7633 66.2587L32.7637 66.2579C32.7496 66.7942 32.6841 67.7292 32.7098 68.6625C32.8632 74.5983 34.7245 80.6642 38.5492 85.2212C41.0082 88.1582 49.4041 92.7893 52.3386 88.3052C54.6188 84.8151 52.1119 81.4586 53.534 77.5043C55.0372 73.317 58.6209 70.497 62.1245 68.0885C67.1152 64.6571 72.4239 61.232 72.4289 54.3537C72.432 48.6444 68.1012 44.5124 62.9403 43.4908ZM28.0771 60.43C26.456 60.1437 24.9561 60.6141 23.5373 61.3465C16.5003 64.9792 14.7325 73.1054 16.9429 79.6101C18.5817 84.4296 22.1986 87.192 26.8454 88.6841C28.8528 89.3307 30.8997 89.5831 32.9505 88.9269C34.6671 88.3734 35.1417 87.1011 34.3115 85.472C34.1795 85.2121 34.0301 84.9583 33.861 84.7205C29.7136 78.928 28.5586 72.4531 29.6514 65.4681V65.4678C29.782 64.6932 29.9387 63.9243 30.0392 63.1487C30.2376 61.6379 29.5549 60.6893 28.0771 60.43ZM72.3715 86.8405C73.2077 86.4597 73.8921 88.3049 72.8761 88.6221C71.7718 88.9667 71.3837 87.2905 72.3715 86.8405ZM66.0612 70.2344C62.1842 70.4446 53.7407 76.7501 57.2691 85.0838C59.0992 89.4039 68.7638 86.4945 64.7701 79.774H64.7703C61.4152 74.1302 69.4774 70.0491 66.0612 70.2344ZM71.1291 66.1452C70.4828 65.6752 69.9678 65.7894 69.8892 66.6394C69.6908 68.8019 69.8758 70.9411 70.8553 72.8991C71.0773 73.3398 71.7897 73.812 72.2264 73.7673C72.6485 73.7239 73.1968 73.1004 73.3619 72.6159C74.1246 70.3841 73.2654 68.5215 71.9122 66.8331L71.7121 66.6507C71.5167 66.4693 71.3323 66.2926 71.1291 66.1452ZM14.1739 67.3306C13.8251 67.3594 13.4822 67.4527 13.1066 67.5197H13.1062C11.0053 68.2906 9.25128 69.4879 8.75964 71.9073C8.65201 72.4319 8.81476 73.2917 9.17202 73.5626C9.53966 73.8396 10.4266 73.8085 10.8564 73.5349C12.7702 72.3171 14.0617 70.5032 15.0248 68.4561C15.4037 67.6506 15.001 67.2649 14.1739 67.3306ZM28.5668 41.9064C24.7497 42.001 21.095 42.9993 17.6574 45.1498C15.1058 46.7431 12.9513 48.7784 11.7974 51.8598L11.7977 51.8601C10.569 55.1335 10.9534 57.7972 12.9134 59.5697C15.5857 61.9888 20.0469 61.4837 22.6597 58.5769C25.6802 55.2178 29.3054 52.9721 33.2372 51.3208C34.9687 50.5939 36.7357 49.9089 38.3679 48.9375C40.0916 47.9104 40.2518 46.1735 38.8381 44.8589C38.109 44.1783 37.2411 43.6101 36.3416 43.2264C33.8856 42.1756 31.2619 41.8395 28.5668 41.9064ZM46.5009 12.9572C47.9897 11.5924 46.2046 8.94216 44.6957 10.3291L44.6954 10.3294C40.4821 14.1975 38.3784 19.8568 37.6921 25.4968C37.0203 31.0162 37.6817 37.1765 40.8812 41.8319C42.0439 43.5263 44.6264 41.688 43.4599 39.9897C40.7362 36.026 40.2701 30.7801 40.787 26.0922C41.3022 21.4042 42.9666 16.2033 46.5009 12.9572ZM74.367 36.5072C71.1053 35.5148 68.4826 36.9248 66.1422 39.0612L66.1419 39.0605C65.811 39.4861 65.4693 39.8589 65.202 40.2804C64.5696 41.2785 64.7682 42.0446 65.9982 42.1031C69.125 42.2555 72.1887 41.8376 74.9408 40.2392C75.5598 39.8804 76.1941 38.7813 76.1004 38.1315C76.0092 37.4999 75.076 36.7228 74.367 36.5072ZM14.4165 40.1511C12.9576 39.098 11.3839 38.4739 9.60251 39.2517C9.2147 39.4202 8.73796 39.9237 8.72727 40.2867C8.71508 40.6599 9.1432 41.2382 9.51724 41.4001C11.1738 42.1217 12.9358 42.1548 14.6931 41.8614C15.3836 41.7458 15.4487 41.3001 15.0265 40.7778C14.8478 40.5556 14.6306 40.3688 14.4165 40.1505V40.1511ZM52.9571 41.1024C67.719 36.6576 63.8971 19.8229 62.1019 20.8601H62.1016C57.1657 25.6338 51.3629 31.5629 48.8665 36.3405C48.3055 37.415 48.3719 39.5484 49.0757 40.3832C49.7556 41.1946 51.7676 41.4628 52.9571 41.1024ZM24.3321 26.7483C22.9504 26.2606 22.4124 38.4909 33.2588 39.6519C34.133 39.7464 35.5008 39.2959 35.8742 38.6421C36.2573 37.9681 36.0356 36.4717 35.5073 35.7972C33.1652 32.7959 28.3726 29.4262 24.3321 26.7483ZM49.5444 26.6787C50.3144 25.4906 48.5273 25.2298 47.0009 25.9716V25.9709C43.992 27.6774 41.9164 30.6291 43.2431 34.3286C43.5245 35.128 44.2346 36.1191 45.0354 36.3862C45.6622 36.5964 46.4955 36.2556 46.6154 35.7327C46.7261 32.685 47.6402 29.7866 49.5444 26.6787Z" fill="white"/>
</svg>
